<svg version="1.1" xmlns="http://www.w3.org/2000/svg" xmlns:xlink="http://www.w3.org/1999/xlink" width="16" height="16" viewBox="0,0,256,256"><g fill="#dddbe4" fill-rule="nonzero" stroke="none" stroke-width="1" stroke-linecap="butt" stroke-linejoin="miter" stroke-miterlimit="10" stroke-dasharray="" stroke-dashoffset="0" font-family="none" font-weight="none" font-size="none" text-anchor="none" style="mix-blend-mode: normal"><g transform="translate(-0.01616,0.00001) scale(16,16)"><path d="M2.52,3.515c0.39431,-0.91984 1.2992,-1.51589 2.3,-1.515h6.362c1,0 1.904,0.596 2.298,1.515l0.792,1.848c0.075,0.175 0.21,0.319 0.38,0.404c0.5,0.25 0.855,0.715 0.965,1.262l0.335,1.679c0.03333,0.16133 0.04967,0.32467 0.049,0.49v0.413c0,0.814 -0.39,1.543 -1,1.997v1.892c0,0.27614 -0.22386,0.5 -0.5,0.5h-2c-0.27614,0 -0.5,-0.22386 -0.5,-0.5v-1.338c-1.292,0.048 -2.745,0.088 -4,0.088c-1.255,0 -2.708,-0.04 -4,-0.088v1.338c0,0.27614 -0.22386,0.5 -0.5,0.5h-2c-0.27614,0 -0.5,-0.22386 -0.5,-0.5v-1.892c-0.61,-0.454 -1,-1.183 -1,-1.997v-0.413c0.00017,-0.16455 0.01658,-0.32868 0.049,-0.49l0.335,-1.68c0.11,-0.546 0.465,-1.012 0.964,-1.261c0.17116,-0.08485 0.30631,-0.22816 0.381,-0.404l0.792,-1.848zM3,10c0.55228,0 1,-0.44772 1,-1c0,-0.55228 -0.44772,-1 -1,-1c-0.55228,0 -1,0.44772 -1,1c0,0.55228 0.44772,1 1,1M13,10c0.55228,0 1,-0.44772 1,-1c0,-0.55228 -0.44772,-1 -1,-1c-0.55228,0 -1,0.44772 -1,1c0,0.55228 0.44772,1 1,1M6,8c-0.55228,0 -1,0.44772 -1,1c0,0.55228 0.44772,1 1,1h4c0.55228,0 1,-0.44772 1,-1c0,-0.55228 -0.44772,-1 -1,-1zM2.906,5.189c-0.07956,0.16416 -0.06538,0.35831 0.03719,0.50917c0.10257,0.15086 0.2779,0.23544 0.45981,0.22183c0.91,-0.073 3.35,-0.17 4.597,-0.17c1.247,0 3.688,0.097 4.597,0.17c0.18191,0.01361 0.35724,-0.07097 0.45981,-0.22183c0.10257,-0.15086 0.11675,-0.34501 0.03719,-0.50917l-0.956,-1.913c-0.08477,-0.16917 -0.25778,-0.27599 -0.447,-0.276h-7.382c-0.18922,0.00001 -0.36223,0.10683 -0.447,0.276l-0.956,1.914z"></path></g></g></svg>